# xmcd
#
# Track frame offsets:
#	150
#	16860
#	37146
#	55289
#	71568
#	90929
#	111052
#	135260
#	156118
#	180367
#	199934
#	220234
#	235038
#	255338
#	277146
#	293755
#
# Disc length: 4164 seconds
#
# Revision: 0
# Processed by: cddbd v1.5.2PL0 Copyright (c) Steve Scherf et al.
# Submitted via: audiograbber 1.83.01
#
DISCID=d9104210
DTITLE=The Emotions - The Best Of
DYEAR=1996
DGENRE=Soul
TTITLE0=Best of My Love
TTITLE1=Flowers
TTITLE2=I Don't Wanna Lose Your Love
TTITLE3=A Feeling Is
TTITLE4=Me For You
TTITLE5=Don't Ask My Neighbor
TTITLE6=Key to My Heart
TTITLE7=Blessed
TTITLE8=Rejoice
TTITLE9=Love is Right on
TTITLE10=All Night, All Right
TTITLE11=Smile
TTITLE12=Walking The Line
TTITLE13=Boogie Wonderland
TTITLE14='Cause I Love You
TTITLE15=Yes, I Am
EXTD=
EXTT0=
EXTT1=
EXTT2=
EXTT3=
EXTT4=
EXTT5=
EXTT6=
EXTT7=
EXTT8=
EXTT9=
EXTT10=
EXTT11=
EXTT12=
EXTT13=
EXTT14=
EXTT15=
PLAYORDER=
